<svg width="67" height="35" viewBox="0 0 67 35" fill="none" xmlns="http://www.w3.org/2000/svg">
<path d="M34.4585 7.09375H30.6996H28.9855H25.5175H25.4023V8.71702H28.9855V17.5731V18.9365V18.9426L30.6996 18.9365V8.71702H34.4585V7.09375Z" fill="white"/>
<path d="M16.9414 18.9415V10.5195H18.795V18.9384H16.9414V18.9415Z" fill="white"/>
<path d="M19.707 18.9415V10.5195H21.2941L21.6031 12.635H21.6485C21.6637 12.5769 21.7212 12.4332 21.8242 12.2131C21.9272 11.9899 22.0967 11.7484 22.33 11.4886C22.5661 11.2288 22.8812 11.0025 23.2779 10.8099C23.6747 10.6174 24.1746 10.5195 24.7771 10.5195C25.3799 10.5195 25.9281 10.6204 26.331 10.8191C26.7338 11.0209 27.0579 11.2868 27.3002 11.62C27.5425 11.9533 27.7151 12.3292 27.818 12.745C27.9212 13.1608 27.9878 13.5765 28.018 13.9922C28.0484 14.408 28.0636 14.8023 28.0636 15.1722V18.9384H26.2764V15.1722C26.2764 14.5945 26.219 14.0809 26.1009 13.6376C25.9827 13.1913 25.7706 12.8367 25.4617 12.5677C25.1528 12.3017 24.6894 12.1672 24.0716 12.1672C23.4536 12.1672 22.966 12.317 22.6055 12.6135C22.2453 12.9101 21.9877 13.2953 21.8332 13.7722C21.6789 14.249 21.6031 14.7534 21.6031 15.2853V18.9415H19.707Z" fill="white"/>
<path d="M42.7096 18.9364C42.7096 18.9364 42.1009 18.4534 41.704 17.7625C41.3074 17.0716 41.1074 16.2371 41.1074 15.2589C41.1378 14.2776 41.3467 13.4338 41.7374 12.7216C42.128 12.0093 42.6613 11.459 43.3366 11.0739C44.012 10.6887 44.7783 10.4961 45.6294 10.4961C46.4805 10.4961 47.2134 10.6581 47.8252 10.9852C48.4372 11.3123 48.9186 11.7403 49.2701 12.2661C49.6243 12.7919 49.8061 13.1893 49.8789 13.7976H48.1797C48.0615 13.2046 47.8132 12.9203 47.371 12.5993C46.9287 12.2783 46.3715 12.1194 45.693 12.1194C45.1054 12.1194 44.6058 12.2447 44.1937 12.4984C43.7819 12.7521 43.4668 13.1037 43.2459 13.5561C43.0247 14.0086 42.9066 14.5313 42.8914 15.1243C42.8914 16.0598 43.1337 16.8088 43.6183 17.3743C44.1029 17.9398 44.7875 18.2211 45.6688 18.2211C46.3017 18.2211 46.8529 18.0591 47.3226 17.732C47.792 17.4049 48.0857 16.931 48.2039 16.3074H49.903C49.8303 16.931 49.6124 17.5088 49.2519 18.0438C48.8914 18.5787 48.2343 18.9395 48.2343 18.9395H42.7036L42.7096 18.9364Z" fill="white"/>
<path d="M50.8242 18.9426V8.78425C50.8242 8.50606 50.9636 8.24622 51.1937 8.09339L52.6989 7.09375V12.636H52.7443C52.7595 12.578 52.8171 12.4343 52.9201 12.2142C53.023 11.991 53.1896 11.7495 53.4169 11.4897C53.644 11.2298 53.9499 11.0036 54.3316 10.811C54.7132 10.6184 55.1976 10.5206 55.7884 10.5206C56.4214 10.5206 56.9422 10.6246 57.3543 10.8324C57.7661 11.0403 58.0932 11.3154 58.3355 11.6547C58.5778 11.9971 58.7595 12.3762 58.8777 12.7889C58.9959 13.2046 59.0716 13.6173 59.1078 14.0239C59.1442 14.4336 59.1624 14.8157 59.1624 15.1703V18.9365H57.3755V15.1703C57.3755 14.5925 57.3149 14.0789 57.1997 13.6357C57.0815 13.1893 56.8696 12.8347 56.5607 12.5657C56.2516 12.2998 55.7884 12.1653 55.1704 12.1653C54.5527 12.1653 54.0651 12.3151 53.7046 12.6116C53.3441 12.9081 53.0866 13.2933 52.9323 13.7702C52.7777 14.2471 52.7019 14.7515 52.7019 15.2834V18.9395H50.8272L50.8242 18.9426Z" fill="white"/>
<path d="M9.69461 8.71139L16.0278 8.70528L15.8521 7.57115C15.8249 7.40606 15.9309 7.21348 16.0854 7.14927L16.2429 7.08203L8.36801 7.08815C8.08935 7.08815 7.86523 7.31435 7.86523 7.5956V18.937H9.69765V12.1413H15.0616L15.0495 10.5181H9.68554L9.69159 8.71444L9.69461 8.71139Z" fill="white"/>
<path d="M17.173 8.44406C17.0973 8.4196 17.0246 8.33705 17.0124 8.25756L16.9276 7.70731C16.9155 7.62784 16.964 7.53918 17.0367 7.50861L17.918 7.13262C17.9907 7.10204 18.1058 7.10816 18.1755 7.14789L18.6964 7.44747C18.7661 7.48722 18.8146 7.58198 18.8055 7.66146L18.7419 8.18726C18.7328 8.26675 18.6692 8.36151 18.5995 8.40126L18.1573 8.6458C18.0877 8.68556 17.9695 8.69472 17.8938 8.67333L17.173 8.44406Z" fill="white"/>
<path d="M30.3721 27.761C30.3721 27.761 29.6571 27.0854 29.421 26.5535C29.1847 26.0216 29.0606 25.4683 29.0516 24.8906C29.0394 24.2027 29.1695 23.5912 29.4392 23.0533C29.7087 22.5151 30.0934 22.0934 30.5932 21.7907C31.0928 21.485 31.6834 21.3321 32.365 21.3321C32.9707 21.3321 33.513 21.4667 33.9976 21.7295C34.482 21.9955 34.8637 22.3684 35.1424 22.8422C35.4211 23.3192 35.5664 23.8909 35.5786 24.5542V24.9852H30.6538C30.6538 25.618 30.8111 26.1011 31.1232 26.4403C31.4351 26.7797 31.8561 26.9478 32.3832 26.9478C32.8012 26.9478 33.1495 26.8439 33.428 26.633C33.7067 26.4219 33.8764 26.1439 33.9308 25.8014H35.5604C35.5148 26.2782 35.3635 26.7093 35.1 27.0975C34.8365 27.4857 34.464 27.7549 34.464 27.7549H30.3781L30.3721 27.761ZM30.6962 24.2271H33.8914C33.8794 24.1506 33.8582 24.0283 33.8248 23.8602C33.7914 23.6952 33.7189 23.524 33.6097 23.3436C33.5008 23.1663 33.3402 23.0165 33.1313 22.8943C32.9222 22.772 32.6527 22.7108 32.3256 22.7108C31.9985 22.7108 31.7258 22.7659 31.5199 22.8759C31.3109 22.9859 31.1504 23.1265 31.0414 23.2916C30.9323 23.4566 30.8475 23.6249 30.7929 23.79C30.7386 23.9581 30.7052 24.1018 30.6932 24.221L30.6962 24.2271ZM33.5703 21.0112H32.8132V20.7788L33.6461 19.8984H35.0636L34.9152 20.4884L33.5703 21.0112Z" fill="#25AE9F"/>
<path d="M43.0469 27.7584V21.3633H44.8458V27.7584H43.0469Z" fill="#25AE9F"/>
<path d="M46.6335 27.759C46.6335 27.759 46.0701 27.3279 45.7612 26.8114C45.4521 26.2948 45.3008 25.668 45.3008 24.9253C45.322 24.1823 45.4855 23.5464 45.7854 23.0145C46.0883 22.4826 46.4971 22.073 47.012 21.7826C47.527 21.4953 48.1084 21.3516 48.7595 21.3516C49.4411 21.3516 50.0165 21.483 50.4891 21.7429C50.9615 22.0028 51.328 22.3389 51.5945 22.7486C51.858 23.1582 52.0066 23.5922 52.0397 24.0449H50.4921C50.4163 23.6473 50.2346 23.3416 49.9499 23.1308C49.6652 22.9199 49.2835 22.816 48.8141 22.816C48.4205 22.816 48.0842 22.8985 47.8087 23.0666C47.533 23.2316 47.3241 23.4639 47.1755 23.7575C47.0272 24.0509 46.9544 24.3964 46.9544 24.7967C46.9544 25.4388 47.1119 25.9524 47.424 26.3343C47.7359 26.7165 48.2023 26.9092 48.8171 26.9092C49.2352 26.9092 49.5986 26.7991 49.9135 26.5759C50.2256 26.3527 50.4223 26.0256 50.4981 25.5946H52.0459C52.0126 26.0716 51.861 26.521 51.5915 26.9427C51.322 27.3647 50.801 27.7683 50.801 27.7683H46.6395L46.6335 27.759Z" fill="#25AE9F"/>
<path d="M53.752 27.7584C53.752 27.7584 53.1158 27.2021 52.8675 26.6762C52.6222 26.1506 52.498 25.5482 52.498 24.8726C52.498 24.197 52.6222 23.5796 52.8675 23.0507C53.1128 22.5248 53.4885 22.1122 53.9851 21.8127C54.4819 21.5131 55.1027 21.3633 55.8448 21.3633C56.929 21.3633 57.7529 21.6842 58.3163 22.3293C58.8797 22.9712 59.1614 23.8211 59.1614 24.8726C59.1614 25.5268 59.0433 26.1199 58.807 26.6518C58.5706 27.1837 57.9377 27.7584 57.9377 27.7584H53.752ZM55.8296 26.9331C56.3113 26.9331 56.6807 26.8262 56.9322 26.6183C57.1836 26.4072 57.3531 26.1383 57.4381 25.8112C57.5228 25.4841 57.5682 25.1479 57.5682 24.8054C57.5682 24.463 57.5258 24.1299 57.4381 23.8088C57.3531 23.488 57.1836 23.2188 56.9322 23.0019C56.6807 22.7847 56.3113 22.6778 55.8296 22.6778C55.3482 22.6778 54.9967 22.7847 54.7424 23.0019C54.4909 23.2188 54.3184 23.488 54.2274 23.8088C54.1367 24.1299 54.0913 24.463 54.0913 24.8054C54.0913 25.1479 54.1367 25.4841 54.2274 25.8112C54.3184 26.1383 54.4909 26.4072 54.7424 26.6183C54.9937 26.8292 55.3572 26.9331 55.8296 26.9331Z" fill="#25AE9F"/>
<path d="M16.9414 21.3516V27.7803L18.795 27.7743V21.3516H16.9414Z" fill="#25AE9F"/>
<path d="M24.7325 21.3516L22.8 26.9458H22.7638L20.801 21.3516H18.793L21.3432 27.7803H24.1843L26.7345 21.3516H24.7325Z" fill="#25AE9F"/>
<path d="M26.7383 21.3359V27.7647L28.592 27.7617V21.3359H26.7383Z" fill="#25AE9F"/>
<path d="M36.0273 27.7617H37.8265L39.3136 25.4383L40.8098 27.7617H42.5876L40.6189 24.2278L42.5876 21.3359H40.4222L39.3136 23.0724L38.2112 21.3359H36.0425L38.0444 24.2278L36.0273 27.7617Z" fill="#25AE9F"/>
<path d="M40.1927 14.9858C40.1927 14.8604 40.1837 14.7748 40.1715 14.729C40.1414 13.8547 39.9444 13.0996 39.575 12.4699C39.2085 11.8401 38.7149 11.348 38.0969 10.9995C37.4791 10.651 36.7794 10.5195 35.9859 10.5195C35.0742 10.5195 34.2867 10.6815 33.6325 11.0973C32.9784 11.5131 32.4785 12.0786 32.1333 12.7909C31.788 13.5031 31.6152 14.3041 31.6152 15.1936C31.6304 15.967 31.791 16.7068 32.0999 17.4191C32.4087 18.1314 33.381 18.9384 33.381 18.9384H38.4997C38.4997 18.9384 39.1569 18.7275 39.5114 18.2231C39.8657 17.7187 40.0838 17.1532 40.1715 16.5326H38.3634C38.2756 17.0676 38.0151 17.4925 37.5791 17.8135C37.1458 18.1314 36.6188 18.2934 36.0011 18.2934C35.1772 18.2934 34.535 18.0305 34.0715 17.5016C33.6083 16.9759 33.378 16.3736 33.378 15.4229H40.1927V14.9858ZM33.466 13.977C33.466 12.8948 34.5896 12.0205 35.9737 12.0205C37.358 12.0205 38.4816 12.8978 38.4816 13.977H33.4628H33.466Z" fill="white"/>
</svg>
