<svg width="137" height="80" viewBox="0 0 137 80" fill="none" xmlns="http://www.w3.org/2000/svg">
<path d="M11.386 28.6162V31.5361H0V15.8086H11.1069V18.7285H3.38531V22.1461H10.2076V24.9774H3.38531V28.6162H11.386Z" fill="white"/>
<path d="M14.0898 15.8086H20.7674C22.3645 15.8086 23.7754 16.1349 24.9952 16.7819C26.2201 17.4344 27.1711 18.3524 27.8533 19.5359C28.5356 20.7193 28.8663 22.0963 28.8663 23.6723C28.8663 25.2484 28.5304 26.6254 27.8533 27.8088C27.1711 28.9923 26.2253 29.9103 24.9952 30.5573C23.7703 31.2098 22.3645 31.5361 20.7674 31.5361H14.0898V15.8086ZM20.5969 28.5499C22.0699 28.5499 23.2431 28.113 24.1166 27.2337C24.99 26.36 25.4293 25.171 25.4293 23.6723C25.4293 22.1737 24.99 20.9847 24.1166 20.111C23.2483 19.2317 22.075 18.7948 20.5969 18.7948H17.4958V28.5443H20.5969V28.5499Z" fill="white"/>
<path d="M33.0607 29.9434C31.8978 28.6992 31.3086 26.924 31.3086 24.618V15.8086H34.7094V24.4853C34.7094 27.3001 35.8051 28.7102 37.9862 28.7102C39.0509 28.7102 39.8623 28.3674 40.4257 27.6872C40.9839 27.0014 41.263 25.9341 41.263 24.4853V15.8086H44.6224V24.618C44.6224 26.924 44.0332 28.6992 42.8652 29.9434C41.7023 31.1877 40.0639 31.8071 37.9655 31.8071C35.8671 31.8071 34.2287 31.1877 33.0607 29.9434Z" fill="white"/>
<path d="M50.9536 30.7555C49.739 30.0587 48.7881 29.091 48.0903 27.8578C47.4029 26.6246 47.0566 25.2255 47.0566 23.666C47.0566 22.1065 47.4029 20.7129 48.0903 19.4742C48.7881 18.241 49.7339 17.2732 50.9536 16.5764C52.163 15.8796 53.5223 15.5312 55.0315 15.5312C56.3081 15.5312 57.4606 15.7746 58.4892 16.2502C59.5177 16.7313 60.3808 17.417 61.0785 18.3184L58.8975 20.4751C57.9051 19.2475 56.6699 18.6336 55.2021 18.6336C54.2924 18.6336 53.481 18.8438 52.7677 19.2751C52.0493 19.7009 51.4963 20.2982 51.0983 21.0613C50.7004 21.8245 50.4988 22.6927 50.4988 23.666C50.4988 24.6393 50.7004 25.513 51.0983 26.2706C51.4963 27.0393 52.0493 27.6366 52.7677 28.0569C53.481 28.4882 54.2924 28.6983 55.2021 28.6983C56.675 28.6983 57.9051 28.079 58.8975 26.8347L61.0785 28.9914C60.3756 29.9039 59.5125 30.6007 58.4737 31.0818C57.44 31.5574 56.2874 31.8007 55.0108 31.8007C53.512 31.8007 52.1579 31.4523 50.9485 30.7555H50.9536Z" fill="white"/>
<path d="M72.7547 28.1605H65.9324L64.63 31.5283H61.1465L67.6949 15.8008H71.0492L77.6285 31.5283H74.0572L72.7547 28.1605ZM71.69 25.3954L69.3591 19.3787L67.023 25.3954H71.69Z" fill="white"/>
<path d="M81.9243 30.7555C80.7149 30.0587 79.7639 29.091 79.0662 27.8578C78.3736 26.6246 78.0273 25.2255 78.0273 23.666C78.0273 22.1065 78.3736 20.7129 79.0662 19.4742C79.7588 18.241 80.7098 17.2732 81.9243 16.5764C83.1337 15.8796 84.4982 15.5312 86.0074 15.5312C87.284 15.5312 88.4314 15.7746 89.465 16.2502C90.4936 16.7313 91.3567 17.417 92.0544 18.3184L89.8733 20.4751C88.881 19.2475 87.6458 18.6336 86.1779 18.6336C85.2683 18.6336 84.4517 18.8438 83.7384 19.2751C83.0252 19.7009 82.467 20.2982 82.069 21.0613C81.6659 21.8245 81.4695 22.6927 81.4695 23.666C81.4695 24.6393 81.6659 25.513 82.069 26.2706C82.467 27.0393 83.0252 27.6366 83.7384 28.0569C84.4517 28.4882 85.2631 28.6983 86.1779 28.6983C87.6458 28.6983 88.881 28.079 89.8733 26.8347L92.0544 28.9914C91.3515 29.9039 90.4884 30.6007 89.4495 31.0818C88.4159 31.5574 87.2581 31.8007 85.9867 31.8007C84.4879 31.8007 83.1337 31.4523 81.9243 30.7555Z" fill="white"/>
<path d="M94.3438 15.8086H97.7394V31.5361H94.3438V15.8086Z" fill="white"/>
<path d="M104.226 30.7494C103.001 30.0415 102.045 29.0737 101.353 27.8405C100.655 26.6073 100.309 25.2193 100.309 23.6764C100.309 22.1335 100.655 20.7455 101.353 19.5067C102.045 18.268 103.001 17.3002 104.226 16.5979C105.446 15.8956 106.826 15.5417 108.351 15.5417C109.875 15.5417 111.255 15.8956 112.47 16.5979C113.684 17.3002 114.646 18.268 115.343 19.5067C116.046 20.7399 116.398 22.1335 116.398 23.6764C116.398 25.2193 116.046 26.6073 115.343 27.8405C114.646 29.0793 113.684 30.047 112.47 30.7494C111.255 31.4517 109.88 31.8001 108.351 31.8001C106.821 31.8001 105.446 31.4517 104.226 30.7494ZM110.702 28.0617C111.405 27.6359 111.953 27.0442 112.346 26.2755C112.749 25.5179 112.945 24.6442 112.945 23.6709C112.945 22.6976 112.744 21.8294 112.346 21.0662C111.948 20.3031 111.4 19.7113 110.702 19.28C109.999 18.8542 109.219 18.6385 108.345 18.6385C107.472 18.6385 106.697 18.8487 105.999 19.28C105.301 19.7058 104.753 20.3031 104.355 21.0662C103.952 21.8294 103.756 22.6976 103.756 23.6709C103.756 24.6442 103.952 25.5179 104.355 26.2755C104.753 27.0442 105.301 27.6415 105.999 28.0617C106.697 28.4931 107.482 28.7032 108.345 28.7032C109.209 28.7032 109.999 28.4876 110.702 28.0617ZM109.276 11.2891H112.801L108.997 14.5241H106.438L109.276 11.2891Z" fill="white"/>
<path d="M132.434 15.8086V31.5361H129.638L122.309 21.9857V31.5361H118.949V15.8086H121.766L129.074 25.359V15.8086H132.434Z" fill="white"/>
<path d="M4.81248 41.2242V43.8399H10.7562V47.7165H4.81248V52.5996H0.00585938V37.3477H11.5934V41.2298H4.81248V41.2242Z" fill="white"/>
<path d="M13.123 37.3477H17.9297V52.5996H13.123V37.3477Z" fill="white"/>
<path d="M34.2958 37.3477V52.5996H30.3471L24.9306 45.6704V52.5996H20.248V37.3477H24.1967L29.6132 44.2768V37.3477H34.301H34.2958Z" fill="white"/>
<path d="M46.3284 49.9396H40.9119L39.9557 52.5996H35.0664L41.2995 37.3477H46.0234L52.2565 52.5996H47.2845L46.3335 49.9396H46.3284ZM45.0104 46.24L43.6253 42.4077L42.235 46.24H45.0104Z" fill="white"/>
<path d="M67.0809 37.3477V52.5996H63.1323L57.7106 45.6704V52.5996H53.0332V37.3477H56.9819L62.3984 44.2768V37.3477H67.0809Z" fill="white"/>
<path d="M72.6973 51.9406C71.4931 51.2659 70.5421 50.3203 69.8599 49.1092C69.1725 47.8981 68.8262 46.5211 68.8262 44.9783C68.8262 43.4354 69.1725 42.0639 69.8599 40.8473C70.5369 39.6362 71.4879 38.6961 72.6973 38.0159C73.9067 37.3412 75.266 37.0039 76.7648 37.0039C78.1552 37.0039 79.3852 37.2638 80.4758 37.7892C81.5611 38.309 82.4604 39.0666 83.1633 40.0565L80.1295 42.9543C79.2457 41.7653 78.212 41.168 77.0181 41.168C76.0103 41.168 75.204 41.5109 74.5941 42.2077C73.9842 42.899 73.6741 43.8225 73.6741 44.9838C73.6741 46.1451 73.9842 47.0742 74.5941 47.7599C75.204 48.4511 76.0103 48.7995 77.0181 48.7995C78.212 48.7995 79.2457 48.2023 80.1295 47.0078L83.1633 49.9111C82.4553 50.8954 81.5611 51.6475 80.4758 52.1729C79.3904 52.6982 78.1552 52.9581 76.7648 52.9581C75.266 52.9581 73.9067 52.6208 72.6973 51.9461V51.9406Z" fill="white"/>
<path d="M84.5508 37.3477H89.3574V52.5996H84.5508V37.3477Z" fill="white"/>
<path d="M103.532 48.723V52.5996H91.6758V37.3477H103.258V41.2298H96.3997V43.016H102.426V46.7156H96.3997V48.723H103.527H103.532Z" fill="white"/>
<path d="M111.495 48.7672H110.187V52.5996H105.381V37.3477H112.239C113.557 37.3477 114.71 37.5799 115.681 38.0444C116.658 38.509 117.413 39.1781 117.945 40.0519C118.472 40.9201 118.736 41.9376 118.736 43.0989C118.736 44.1883 118.503 45.1395 118.043 45.9524C117.583 46.7654 116.922 47.4179 116.048 47.8935L119.041 52.5996H113.909L111.49 48.7672H111.495ZM113.407 41.7828C113.082 41.4731 112.591 41.3127 111.94 41.3127H110.187V44.8907H111.94C112.596 44.8907 113.082 44.7358 113.407 44.4206C113.733 44.1109 113.893 43.6685 113.893 43.0989C113.893 42.5293 113.733 42.0924 113.407 41.7828Z" fill="white"/>
<path d="M130.263 49.9396H124.846L123.89 52.5996H119.006L125.234 37.3477H129.958L136.186 52.5996H131.219L130.263 49.9396ZM128.934 46.24L127.554 42.4077L126.169 46.24H128.934Z" fill="white"/>
<path d="M1.75064 8.12985C1.21312 7.9363 0.789311 7.68745 0.484375 7.3833L0.89268 6.4653C1.18211 6.74734 1.5594 6.9796 2.01422 7.15656C2.46904 7.33352 2.94454 7.422 3.4252 7.422C4.06608 7.422 4.54158 7.30587 4.85685 7.07914C5.17212 6.84688 5.32718 6.53719 5.32718 6.15562C5.32718 5.87359 5.23931 5.64685 5.06876 5.46989C4.89303 5.29293 4.68112 5.15468 4.43304 5.0662C4.17979 4.97219 3.82317 4.86711 3.36318 4.74545C2.78432 4.59614 2.31916 4.44683 1.96254 4.29752C1.60592 4.14821 1.30099 3.92147 1.0529 3.61179C0.799651 3.3021 0.675608 2.88735 0.675608 2.362C0.675608 1.91959 0.784146 1.52696 0.99605 1.17856C1.21312 0.824639 1.5439 0.542602 1.98321 0.332459C2.42253 0.122317 2.97038 0.0117188 3.6216 0.0117188C4.07125 0.0117188 4.52091 0.0780775 4.96022 0.199739C5.39953 0.32693 5.77683 0.509424 6.0921 0.741687L5.73031 1.68733C5.4047 1.46612 5.06359 1.30022 4.69663 1.18409C4.32967 1.07349 3.97305 1.01266 3.6216 1.01266C2.99622 1.01266 2.5259 1.13432 2.22096 1.37765C1.90569 1.62097 1.75064 1.93618 1.75064 2.32329C1.75064 2.60532 1.84367 2.83758 2.01422 3.00901C2.18995 3.18597 2.40702 3.32422 2.66544 3.41824C2.92903 3.51225 3.28049 3.62285 3.72497 3.73345C4.30383 3.88276 4.77416 4.03208 5.12044 4.18139C5.47189 4.3307 5.77166 4.55743 6.02491 4.86158C6.28333 5.16574 6.40737 5.58049 6.40737 6.09479C6.40737 6.52613 6.29367 6.91877 6.07659 7.27822C5.85952 7.63768 5.52357 7.91418 5.07909 8.11879C4.62944 8.32894 4.08676 8.42848 3.43037 8.42848C2.85668 8.42848 2.29332 8.33446 1.76097 8.14091L1.75064 8.12985Z" fill="white"/>
<path d="M13.5877 7.29552V8.31858H8.00586V0.0898438H13.4327V1.11291H9.10156V3.64015H12.9624V4.64109H9.10156V7.30105H13.5877V7.29552Z" fill="white"/>
<path d="M22.4976 8.3202L22.4873 2.32561L19.7067 7.32479H19.2002L16.4248 2.35879V8.31468H15.3652V0.0859375H16.2645L19.4741 5.87038L22.6424 0.0859375H23.5417L23.552 8.31468H22.4925L22.4976 8.3202Z" fill="white"/>
<path d="M30.763 6.2614H26.6748L25.8272 8.31858H24.6953L28.1788 0.0898438H29.2694L32.758 8.31858H31.6003L30.7579 6.2614H30.763ZM30.3754 5.32682L28.7163 1.2954L27.0573 5.32682H30.3754Z" fill="white"/>
<path d="M40.5127 0.0898438V8.31858H39.6134L34.998 2.18574V8.31858H33.9023V0.0898438H34.7965L39.4119 6.22822V0.0898438H40.5076H40.5127Z" fill="white"/>
<path d="M47.7188 6.2614H43.6358L42.7881 8.31858H41.6562L45.1398 0.0898438H46.2251L49.719 8.31858H48.5612L47.7136 6.2614H47.7188ZM47.3363 5.32682L45.6824 1.2954L44.0182 5.32682H47.3312H47.3363Z" fill="white"/>
<path d="M60.4346 0.0898438V8.31858H59.5405L54.9199 2.18574V8.31858H53.8242V0.0898438H54.7235L59.3441 6.22822V0.0898438H60.4398H60.4346Z" fill="white"/>
<path d="M67.6458 6.2614H63.5576L62.71 8.31858H61.5781L65.0616 0.0898438H66.1522L69.646 8.31858H68.4935L67.6458 6.2614ZM67.2582 5.32682L65.5991 1.2954L63.9401 5.32682H67.2582Z" fill="white"/>
<path d="M72.0322 7.87482C71.412 7.50983 70.9262 7.0066 70.5747 6.37064C70.2233 5.72915 70.0527 5.01024 70.0527 4.21391C70.0527 3.41758 70.2285 2.69867 70.5747 2.05718C70.9262 1.42123 71.412 0.917994 72.0374 0.54748C72.6576 0.182495 73.3553 0 74.1254 0C74.725 0 75.278 0.110604 75.7793 0.326276C76.2703 0.536419 76.6993 0.86269 77.0456 1.28297L76.3375 2.02401C75.7587 1.37146 75.0351 1.04518 74.172 1.04518C73.5983 1.04518 73.0814 1.18344 72.6214 1.45441C72.1614 1.73091 71.7997 2.10696 71.5412 2.58807C71.2828 3.07472 71.1484 3.61113 71.1484 4.20838C71.1484 4.80563 71.2828 5.34758 71.5412 5.82869C71.7997 6.30981 72.1614 6.69138 72.6214 6.96235C73.0814 7.23885 73.5983 7.37711 74.172 7.37711C75.0196 7.37711 75.7483 7.0453 76.3375 6.38723L77.0456 7.12825C76.6993 7.54854 76.2703 7.87481 75.769 8.09602C75.2677 8.31722 74.7146 8.42229 74.1151 8.42229C73.345 8.42229 72.6524 8.2398 72.0322 7.88034V7.87482Z" fill="white"/>
<path d="M78.6172 0.0898438H79.7181V8.31858H78.6172V0.0898438Z" fill="white"/>
<path d="M83.3974 7.881C82.7771 7.51602 82.2861 7.00725 81.9295 6.37129C81.5781 5.7298 81.4023 5.0109 81.4023 4.2201C81.4023 3.4293 81.5832 2.71592 81.9295 2.07443C82.2861 1.42742 82.7771 0.924178 83.3974 0.559194C84.0227 0.19421 84.7205 0.0117188 85.4957 0.0117188C86.271 0.0117188 86.9636 0.19421 87.5838 0.559194C88.204 0.924178 88.7001 1.42742 89.0464 2.0689C89.3979 2.71039 89.5736 3.4293 89.5736 4.22563C89.5736 5.02196 89.403 5.74639 89.0464 6.38235C88.7001 7.01831 88.204 7.52154 87.5838 7.88653C86.9687 8.25151 86.271 8.42847 85.4957 8.42847C84.7205 8.42847 84.0227 8.24598 83.3974 7.88653V7.881ZM87.0152 6.96854C87.4649 6.69756 87.8215 6.316 88.0799 5.83488C88.3383 5.35376 88.4676 4.81181 88.4676 4.21457C88.4676 3.61732 88.3383 3.0809 88.0799 2.59426C87.8163 2.11314 87.4649 1.7371 87.0152 1.4606C86.5656 1.18962 86.0591 1.05137 85.4906 1.05137C84.922 1.05137 84.4155 1.18962 83.9607 1.4606C83.5007 1.7371 83.1441 2.11314 82.8857 2.59426C82.6273 3.0809 82.4981 3.61732 82.4981 4.21457C82.4981 4.81181 82.6273 5.35376 82.8857 5.83488C83.1493 6.316 83.5059 6.69756 83.9607 6.96854C84.4155 7.24504 84.9272 7.38329 85.4906 7.38329C86.0539 7.38329 86.5604 7.24504 87.0152 6.96854Z" fill="white"/>
<path d="M97.8643 0.0898438V8.31858H96.965L92.3496 2.18574V8.31858H91.2539V0.0898438H92.148L96.7738 6.22822V0.0898438H97.8695H97.8643Z" fill="white"/>
<path d="M105.072 6.2614H100.984L100.142 8.31858H99.0098L102.493 0.0898438H103.584L107.078 8.31858H105.92L105.077 6.2614H105.072ZM104.69 5.32682L103.031 1.2954L101.372 5.32682H104.69Z" fill="white"/>
<path d="M108.211 0.0898438H109.312V7.29552H113.478V8.31858H108.211V0.0898438Z" fill="white"/>
<path d="M117.695 0.0914645H120.931C121.747 0.0914645 122.466 0.268427 123.096 0.605761C123.727 0.954155 124.218 1.43527 124.564 2.06017C124.916 2.67954 125.086 3.39844 125.086 4.2003C125.086 5.00216 124.921 5.72107 124.564 6.34597C124.223 6.97086 123.727 7.45198 123.096 7.80038C122.466 8.14324 121.742 8.31468 120.931 8.31468H117.695V0.0859375V0.0914645ZM120.869 7.29714C121.494 7.29714 122.037 7.16442 122.512 6.91004C122.988 6.65012 123.35 6.29067 123.608 5.82061C123.866 5.35056 123.99 4.81414 123.99 4.2003C123.99 3.58647 123.861 3.05005 123.608 2.57999C123.35 2.11547 122.988 1.75601 122.512 1.4961C122.037 1.23619 121.494 1.109 120.869 1.109H118.796V7.29161H120.869V7.29714Z" fill="white"/>
<path d="M132.346 7.29552V8.31858H126.77V0.0898438H132.196V1.11291H127.865V3.64015H131.721V4.64109H127.865V7.30105H132.346V7.29552Z" fill="white"/>
<path d="M13.7327 77.1755V78.6852H2.92552V77.4852L9.33435 70.7662C10.1406 69.9201 10.6885 69.1846 10.9727 68.5652C11.257 67.9458 11.4017 67.3209 11.4017 66.6905C11.4017 65.7172 11.0916 64.9596 10.4714 64.4176C9.84602 63.8757 8.95189 63.6047 7.79416 63.6047C5.99039 63.6047 4.58975 64.2186 3.59225 65.4407L2.4707 64.4066C3.07024 63.6545 3.84033 63.0738 4.77064 62.6646C5.70096 62.2554 6.75014 62.0508 7.92337 62.0508C9.49457 62.0508 10.7402 62.449 11.655 63.2398C12.5749 64.0305 13.0298 65.1144 13.0298 66.5025C13.0298 67.3486 12.8592 68.167 12.5026 68.9468C12.1511 69.732 11.4844 70.639 10.5024 71.6565L5.26164 77.17H13.7327V77.1755Z" fill="white"/>
<path d="M45.2538 77.8059C44.3183 77.1313 43.5896 76.1635 43.0727 74.8971C42.5507 73.6363 42.2871 72.1487 42.2871 70.4344C42.2871 68.72 42.5455 67.2325 43.0727 65.9716C43.5896 64.7052 44.3183 63.7375 45.2538 63.0628C46.1841 62.3881 47.2384 62.0508 48.4272 62.0508C49.6159 62.0508 50.6806 62.3881 51.6109 63.0628C52.5412 63.743 53.2751 64.7107 53.7972 65.9716C54.3243 67.238 54.5879 68.72 54.5879 70.4344C54.5879 72.1487 54.3243 73.6363 53.7972 74.8971C53.27 76.1635 52.5412 77.1313 51.6109 77.8059C50.6754 78.4806 49.6159 78.8235 48.4272 78.8235C47.2384 78.8235 46.1789 78.4861 45.2538 77.8059ZM50.7943 76.4677C51.4817 75.9312 52.0089 75.1515 52.3914 74.134C52.7738 73.1164 52.965 71.8832 52.965 70.4344C52.965 68.9855 52.7738 67.7578 52.3914 66.7347C52.0089 65.7172 51.4817 64.9375 50.7943 64.4011C50.1172 63.8646 49.3213 63.5992 48.4272 63.5992C47.533 63.5992 46.7423 63.8646 46.0652 64.4011C45.383 64.9375 44.8506 65.7117 44.4682 66.7347C44.0857 67.7523 43.8945 68.9855 43.8945 70.4344C43.8945 71.8832 44.0805 73.1109 44.4682 74.134C44.8506 75.1515 45.383 75.9312 46.0652 76.4677C46.7474 76.9986 47.533 77.2695 48.4272 77.2695C49.3213 77.2695 50.1172 76.9986 50.7943 76.4677Z" fill="white"/>
<path d="M93.7059 77.1755V78.6852H82.8988V77.4852L89.3024 70.7662C90.1087 69.9201 90.6617 69.1846 90.946 68.5652C91.2302 67.9458 91.3749 67.3209 91.3749 66.6905C91.3749 65.7172 91.0648 64.9596 90.4395 64.4176C89.8193 63.8757 88.9199 63.6047 87.7622 63.6047C85.9584 63.6047 84.5578 64.2186 83.5551 65.4407L82.4336 64.4066C83.0383 63.6545 83.8032 63.0738 84.7387 62.6646C85.669 62.2554 86.7234 62.0508 87.8966 62.0508C89.4678 62.0508 90.7082 62.449 91.6282 63.2398C92.5482 64.0305 93.003 65.1144 93.003 66.5025C93.003 67.3486 92.8324 68.167 92.4758 68.9468C92.1244 69.732 91.4576 70.639 90.4756 71.6565L85.2349 77.17H93.7111L93.7059 77.1755Z" fill="white"/>
<path d="M0.128906 57.9883H136.534" stroke="#C21E43" stroke-width="4.65" stroke-miterlimit="10"/>
<path d="M133.911 66.6069C133.581 64.8148 132.554 63.9187 130.829 63.9187C129.495 63.9187 128.498 64.4757 127.838 65.5898C127.178 66.6877 126.856 68.504 126.871 71.0389C127.216 70.1993 127.785 69.5454 128.58 69.0772C129.39 68.5928 130.29 68.3507 131.279 68.3507C132.824 68.3507 134.053 68.8673 134.968 69.9006C135.898 70.9339 136.363 72.3628 136.363 74.1873C136.363 75.2852 136.16 76.27 135.755 77.1419C135.365 78.0138 134.766 78.708 133.956 79.2247C133.161 79.7413 132.194 79.9997 131.054 79.9997C129.51 79.9997 128.303 79.6283 127.433 78.8856C126.563 78.1429 125.956 77.1177 125.611 75.8099C125.266 74.5021 125.094 72.8876 125.094 70.9662C125.094 65.0408 127.013 62.0781 130.852 62.0781C132.321 62.0781 133.476 62.506 134.316 63.3617C135.155 64.2174 135.65 65.2992 135.8 66.6069H133.911ZM130.852 70.2155C130.207 70.2155 129.6 70.3608 129.03 70.6514C128.46 70.9259 127.995 71.3537 127.635 71.935C127.291 72.5001 127.118 73.1943 127.118 74.0177C127.118 75.2448 127.448 76.2458 128.108 77.0208C128.768 77.7796 129.712 78.1591 130.942 78.1591C131.992 78.1591 132.824 77.8119 133.439 77.1177C134.068 76.4073 134.383 75.4547 134.383 74.2599C134.383 73.0006 134.083 72.0157 133.484 71.3053C132.884 70.5787 132.007 70.2155 130.852 70.2155Z" fill="white"/>
</svg>
